<svg width="32" height="32" viewBox="0 0 32 32" fill="none" xmlns="http://www.w3.org/2000/svg">
<rect width="32" height="32" rx="16" fill="#002A4A"/>
<path d="M15.2107 3.82084C14.5306 3.97241 14.2012 4.1765 12.2503 5.6359L10.3883 7.03252H8.56293C6.52827 7.03252 6.49175 7.03777 6.25639 7.39343C6.14134 7.56601 6.13609 7.60778 6.13609 8.88935V10.2125L5.66537 10.5629C5.12663 10.9603 4.9383 11.1644 4.73445 11.5463L4.59314 11.8182L4.57739 17.9117C4.56164 24.6642 4.55113 24.3763 4.90178 25.1086C5.34624 26.0343 6.06806 26.6673 7.05149 27.002L7.46993 27.1433H15.9692H24.4688L24.8872 26.9967C25.5198 26.7719 25.8337 26.568 26.3254 26.0763C26.8379 25.5586 27.0995 25.1034 27.2668 24.4236C27.3714 24.0104 27.3714 23.8586 27.3609 17.9379L27.3451 11.8707L27.209 11.5831C27.026 11.1909 26.8271 10.9763 26.2729 10.5631L25.8022 10.2125V8.88911C25.8022 7.60754 25.7969 7.56577 25.6819 7.39319C25.4465 7.03753 25.4097 7.03228 23.3751 7.03228H21.555L19.7244 5.67242C18.7202 4.91933 17.7736 4.23928 17.627 4.1555C16.968 3.79482 15.9638 3.65351 15.2107 3.82084ZM24.2855 11.1279V13.7115L20.1691 16.7871C17.8991 18.4817 16.0108 19.8678 15.969 19.8678C15.9272 19.8678 14.0389 18.4817 11.7741 16.7871L7.65277 13.7115V11.1329V8.54897H15.969H24.2855V11.1279ZM6.71111 14.9146C6.98299 15.1134 8.99688 16.6143 11.1831 18.2516C13.3693 19.8886 15.2629 21.2694 15.3935 21.3269C15.7282 21.4785 16.2619 21.463 16.586 21.3007C16.7221 21.2327 18.8351 19.6845 21.2776 17.8539C23.7255 16.0286 25.7549 14.5116 25.7914 14.4906C25.8437 14.4594 25.8542 15.3798 25.8437 19.2818L25.8279 24.1094L25.6554 24.4599C25.441 24.8993 24.9858 25.3335 24.5621 25.5058L24.2587 25.6261L16.0731 25.6416C7.99721 25.6521 7.88216 25.6521 7.54226 25.5476C6.96699 25.375 6.51705 24.9826 6.25042 24.4126L6.10911 24.1092L6.09336 19.2763C6.08286 15.3745 6.09336 14.4539 6.14563 14.4956C6.18287 14.5276 6.43923 14.7157 6.71111 14.9146Z" fill="black"/>
<path d="M9.87029 21.3167C8.08674 23.1055 8.01871 23.1788 8.01871 23.3669C8.01871 23.5187 8.05523 23.6075 8.17028 23.7225C8.28533 23.8376 8.37437 23.8741 8.52594 23.8741C8.71427 23.8741 8.78755 23.8113 10.5659 22.0278C12.3231 20.2755 12.4122 20.1762 12.4122 19.9931C12.4122 19.7212 12.2396 19.5329 11.952 19.4961L11.7219 19.4649L9.87029 21.3167Z" fill="black"/>
<path d="M19.709 19.6062C19.5627 19.7525 19.4996 19.9513 19.5469 20.1187C19.5627 20.1867 20.3943 21.0548 21.3932 22.054C23.1505 23.8063 23.2238 23.8743 23.4174 23.8743C23.6945 23.8743 23.9196 23.6495 23.9196 23.3669C23.9196 23.1785 23.8568 23.1052 22.0733 21.3269C20.3 19.5539 20.2217 19.4806 20.0334 19.4806C19.8918 19.4809 19.7978 19.5174 19.709 19.6062Z" fill="black"/>
<path d="M10.8363 11.986V13.598H10.9538V11.986H10.8363Z" fill="white"/>
<path d="M12.9242 11.986H12.8067V13.3862L11.7105 11.986H11.6115V13.5981H11.7289V12.1979L12.8274 13.5981H12.9242V11.986Z" fill="white"/>
<path d="M14.8479 11.986H14.7259L14.0741 13.4461L13.4224 11.986H13.2934L14.0119 13.5981H14.1294L14.8479 11.986Z" fill="white"/>
<path d="M15.2038 11.986V13.5981H15.3213V11.986H15.2038Z" fill="white"/>
<path d="M16.2876 12.0919V13.5981H16.405V12.0919H16.9854V11.986H15.7072V12.0919H16.2876Z" fill="white"/>
<path d="M18.4136 12.7275H17.3704V12.8312H18.4136V12.7275ZM18.4136 11.986H17.3704V12.0919H18.4136V11.986ZM17.3704 13.4921V13.5981H18.4136V13.4921H17.3704Z" fill="white"/>
<path d="M19.0091 11.986V13.5981H19.1266V11.986H19.0091Z" fill="white"/>
<path d="M21.097 11.986H20.9795V13.3862L19.8833 11.986H19.7843V13.5981H19.9017V12.1979L21.0002 13.5981H21.097V11.986Z" fill="white"/>
</svg>
